<svg xmlns="http://www.w3.org/2000/svg" xmlns:xlink="http://www.w3.org/1999/xlink" width="500" zoomAndPan="magnify" viewBox="0 0 375 374.999991" height="500" preserveAspectRatio="xMidYMid meet" version="1.0"><defs><g/><clipPath id="f32b085ef4"><path d="M 55.28125 163 L 135.917969 163 L 135.917969 212 L 55.28125 212 Z M 55.28125 163 " clip-rule="nonzero"/></clipPath></defs><g clip-path="url(#f32b085ef4)"><path fill="#ff9900" d="M 95.980469 165.089844 C 92.875 167.082031 85.742188 171.625 85.632812 171.371094 C 85.527344 171.125 89.167969 167.300781 91.011719 165.390625 C 92.496094 165.277344 94.179688 165.171875 95.980469 165.089844 Z M 73.78125 176.542969 C 73.222656 176.566406 72.65625 176.59375 72.09375 176.625 C 73.40625 175.246094 81.507812 166.871094 85.449219 166.015625 C 85.8125 165.933594 86.34375 165.855469 87.015625 165.769531 C 83.738281 168.402344 75.613281 174.964844 73.78125 176.542969 Z M 60.667969 186.125 C 60.449219 186.527344 60.292969 187.105469 60.3125 187.945312 C 60.332031 188.820312 60.546875 189.800781 60.804688 190.667969 C 59.613281 189.261719 58.859375 187.464844 58.53125 186.566406 C 58.535156 186.523438 58.539062 186.484375 58.546875 186.4375 C 58.871094 186.296875 59.503906 186.136719 60.667969 186.125 Z M 61.992188 186.269531 C 62.085938 186.265625 62.175781 186.234375 62.246094 186.1875 C 63.175781 186.261719 64.316406 186.414062 65.707031 186.671875 C 68.382812 187.160156 70.882812 188.257812 72.921875 189.453125 C 75.839844 191.164062 77.792969 192.886719 77.832031 193.292969 C 77.714844 193.367188 74.792969 193.269531 71.671875 193.148438 C 68.21875 193.007812 64.585938 192.707031 63.722656 192.570312 C 63.707031 192.570312 63.683594 192.5625 63.644531 192.554688 C 63.207031 192.460938 62.792969 192.292969 62.414062 192.070312 C 62.042969 191.152344 61.398438 189.363281 61.367188 187.921875 C 61.328125 186.296875 61.992188 186.269531 61.992188 186.269531 Z M 133.976562 187.585938 C 133.976562 187.585938 130.292969 188.535156 126.917969 189.757812 C 123.4375 191.015625 120.257812 192.550781 119.972656 193.03125 C 119.414062 193.984375 120.863281 194.59375 121.351562 194.617188 C 121.84375 194.636719 132.410156 194.851562 132.410156 194.523438 C 132.410156 194.199219 131.503906 193.804688 130.710938 193.847656 C 129.914062 193.894531 120.953125 193.753906 121.09375 193.289062 C 121.234375 192.824219 128.097656 189.796875 130.382812 189.050781 C 132.667969 188.308594 133.976562 187.585938 133.976562 187.585938 Z M 65.808594 196.789062 C 65.089844 196.789062 64.441406 197.078125 63.964844 197.550781 C 63.496094 198.019531 63.203125 198.671875 63.203125 199.390625 C 63.203125 200.109375 63.496094 200.757812 63.964844 201.226562 C 64.441406 201.699219 65.089844 201.988281 65.808594 201.988281 C 66.527344 201.988281 67.183594 201.699219 67.652344 201.226562 C 68.121094 200.757812 68.417969 200.109375 68.417969 199.390625 C 68.417969 198.671875 68.121094 198.019531 67.652344 197.550781 C 67.183594 197.078125 66.527344 196.789062 65.808594 196.789062 Z M 73.71875 192.578125 C 74.007812 192.589844 74.253906 192.363281 74.269531 192.074219 C 74.28125 191.785156 74.058594 191.539062 73.765625 191.523438 C 73.742188 191.523438 64.9375 191.136719 64.175781 190.597656 C 63.511719 190.125 63.464844 187.71875 63.464844 187.710938 C 63.457031 187.421875 63.214844 187.191406 62.925781 187.195312 C 62.636719 187.203125 62.40625 187.4375 62.410156 187.734375 C 62.410156 187.738281 62.460938 190.675781 63.566406 191.453125 C 64.578125 192.175781 73.695312 192.574219 73.71875 192.578125 Z M 65.589844 198.609375 C 65.828125 198.371094 66.15625 198.222656 66.523438 198.222656 C 66.886719 198.222656 67.214844 198.371094 67.457031 198.609375 C 67.695312 198.847656 67.84375 199.175781 67.84375 199.542969 C 67.84375 199.90625 67.695312 200.234375 67.457031 200.472656 C 67.214844 200.710938 66.886719 200.859375 66.523438 200.859375 C 66.15625 200.859375 65.828125 200.710938 65.589844 200.472656 C 65.351562 200.234375 65.199219 199.90625 65.199219 199.542969 C 65.199219 199.175781 65.351562 198.847656 65.589844 198.609375 Z M 122.65625 199.878906 C 122.65625 199.878906 118.832031 195.503906 116.917969 195.128906 C 115 194.753906 83.496094 193.917969 79.015625 195.734375 C 74.539062 197.550781 68 204.765625 68.328125 206.257812 C 68.386719 206.523438 68.457031 206.746094 68.527344 206.933594 L 57.550781 206.859375 C 57.332031 206.859375 57.035156 206.121094 56.847656 205.386719 L 56.84375 205.359375 C 56.78125 205.117188 56.734375 204.875 56.71875 204.652344 C 56.707031 204.519531 56.703125 204.394531 56.710938 204.292969 L 60.90625 204.257812 C 61.296875 204.257812 66.976562 203.941406 66.976562 203.554688 C 66.976562 203.171875 61.296875 202.855469 60.90625 202.855469 L 58.601562 202.875 C 58.445312 200.9375 58.015625 194.828125 58.296875 189.421875 C 59.328125 191.289062 60.992188 193.433594 63.351562 193.929688 C 63.375 193.933594 63.429688 193.945312 63.511719 193.957031 C 64.40625 194.101562 68.117188 194.40625 71.617188 194.550781 C 75.40625 194.699219 79.011719 194.554688 79.214844 193.582031 C 79.222656 193.539062 79.230469 193.496094 79.230469 193.449219 C 79.238281 193.265625 79.167969 193.089844 79.046875 192.957031 C 78.460938 191.882812 76.457031 189.902344 73.636719 188.246094 C 71.476562 186.972656 68.816406 185.816406 65.960938 185.289062 C 62.238281 184.605469 60.03125 184.722656 58.75 185.015625 C 59.121094 182.820312 59.722656 181.105469 60.660156 180.402344 C 63.96875 177.925781 73.628906 177.058594 78.441406 178.003906 C 78.800781 178.117188 78.4375 177.957031 79.476562 178.367188 C 80.523438 178.777344 87.292969 190.691406 87.992188 190.691406 C 88.691406 190.691406 85.191406 183.570312 84.816406 182.359375 C 84.59375 181.636719 84.238281 180.59375 84.328125 179.734375 C 84.558594 179.660156 84.65625 179.566406 84.65625 179.566406 C 84.65625 179.566406 84.699219 179.378906 87.222656 178.957031 C 89.738281 178.539062 112.46875 178.589844 114.058594 179.242188 C 115.644531 179.894531 115.363281 181.148438 114.992188 182.359375 C 114.617188 183.570312 111.117188 190.691406 111.816406 190.691406 C 112.515625 190.691406 117.882812 180.449219 119.65625 179.75 C 121.429688 179.054688 131.347656 177.75 131.347656 177.75 C 131.347656 177.75 119.144531 178.074219 118.046875 177.957031 C 116.949219 177.839844 116.226562 176.46875 115.433594 176.425781 C 114.992188 176.398438 104.664062 176.417969 95.636719 176.449219 C 97.785156 173.914062 104.398438 166.105469 104.910156 165.316406 C 105.015625 165.148438 105.074219 164.992188 105.101562 164.855469 C 112.660156 164.839844 120.023438 165.308594 122.550781 166.808594 C 127.9375 170 132.351562 174.535156 132.351562 174.535156 C 132.351562 174.535156 127.546875 166.945312 121.570312 164.851562 C 115.597656 162.753906 88.523438 162.617188 81.945312 164.621094 C 75.363281 166.621094 69.25 175.5625 69.25 175.5625 L 69.117188 175.710938 C 68.59375 174.875 67.652344 173.589844 66.507812 173.035156 C 64.734375 172.171875 56.308594 171.988281 55.890625 172.988281 C 55.472656 173.992188 58.015625 177.109375 60.300781 177.179688 C 62.589844 177.25 66.492188 176.625 67.605469 177.019531 C 67.449219 177.039062 67.292969 177.0625 67.144531 177.082031 C 61.070312 177.945312 58.378906 179.472656 57.765625 181.707031 C 57.542969 182.542969 56.832031 185.050781 56.609375 188.808594 C 56.304688 194.035156 56.371094 200.734375 56.40625 202.890625 C 55.800781 202.898438 55.460938 203.289062 55.339844 203.902344 C 55.292969 204.160156 55.285156 204.457031 55.3125 204.773438 C 55.335938 205.066406 55.394531 205.386719 55.476562 205.707031 L 55.484375 205.738281 C 55.808594 206.996094 56.585938 208.253906 57.546875 208.261719 L 57.59375 208.261719 C 57.667969 209.226562 57.835938 210.871094 58.128906 211.097656 C 58.203125 211.15625 58.621094 211.199219 59.253906 211.234375 L 59.257812 211.234375 C 61.027344 211.328125 64.523438 211.34375 67.179688 211.332031 C 86.167969 211.550781 132.8125 212.046875 134.308594 211.5625 C 135.75 211.101562 92.316406 210.472656 72.042969 210.203125 C 72.046875 210.160156 72.046875 210.121094 72.039062 210.074219 C 71.980469 209.652344 72.074219 208.597656 72.152344 207.898438 C 80.476562 207.941406 105.792969 208.054688 132.867188 208.136719 L 132.867188 208.144531 C 134.5 208.265625 136.242188 208.324219 136.261719 208.027344 C 136.28125 207.714844 134.421875 207.375 132.761719 206.964844 C 101.511719 206.640625 73.265625 206.265625 72.996094 205.832031 C 72.855469 205.605469 73.136719 205.066406 73.671875 204.371094 C 82.878906 204.230469 116.234375 203.503906 117.734375 202.859375 C 117.734375 202.859375 85.890625 202.25 75.660156 202.183594 C 76.335938 201.511719 77.082031 200.820312 77.816406 200.1875 C 87.8125 200.148438 116.796875 199.378906 117.683594 198.996094 C 118.558594 198.613281 89.644531 198.882812 79.46875 198.84375 C 80.34375 198.183594 81.101562 197.699219 81.585938 197.550781 C 83.636719 196.898438 116.449219 195.921875 117.664062 196.386719 C 118.875 196.851562 122.003906 200.25 122.332031 200.0625 C 122.65625 199.878906 122.65625 199.878906 122.65625 199.878906 " fill-opacity="1" fill-rule="evenodd"/></g><g fill="#ff9900" fill-opacity="1"><g transform="translate(145.756373, 190.786604)"><g><path d="M 14.398438 0.476562 C 17.058594 0.476562 19.789062 -0.101562 22.179688 -1.125 L 22.179688 -13 L 17.265625 -13 L 17.265625 -4.4375 C 16.582031 -4.164062 15.660156 -4.027344 14.671875 -4.027344 C 11.15625 -4.027344 6.515625 -5.597656 6.515625 -11.941406 C 6.515625 -17.503906 10.679688 -19.789062 14.945312 -19.789062 C 17.367188 -19.789062 19.789062 -19.140625 21.597656 -17.914062 L 21.597656 -22.828125 C 19.378906 -23.816406 16.820312 -24.363281 14.261719 -24.363281 C 7.710938 -24.363281 1.261719 -20.609375 1.261719 -11.941406 C 1.261719 -3.171875 7.675781 0.476562 14.398438 0.476562 Z M 14.398438 0.476562 "/></g></g></g><g fill="#ff9900" fill-opacity="1"><g transform="translate(171.477972, 190.786604)"><g><path d="M 15.421875 -23.882812 L 9.828125 -23.882812 L 0.101562 0 L 5.425781 0 L 7.164062 -4.4375 L 18.082031 -4.4375 L 19.824219 0 L 25.148438 0 Z M 8.769531 -8.734375 L 12.078125 -17.230469 C 12.285156 -17.707031 12.417969 -18.1875 12.625 -19.003906 C 12.828125 -18.1875 12.964844 -17.707031 13.136719 -17.230469 L 16.480469 -8.734375 Z M 8.769531 -8.734375 "/></g></g></g><g fill="#ff9900" fill-opacity="1"><g transform="translate(198.529965, 190.786604)"><g><path d="M 2.558594 0 L 7.675781 0 L 7.675781 -8.359375 L 11.429688 -8.359375 L 17.878906 0 L 23.78125 0 L 16.683594 -9.007812 C 19.550781 -9.929688 21.871094 -12.011719 21.871094 -16.105469 C 21.871094 -22.144531 17.027344 -23.882812 12.386719 -23.882812 L 2.558594 -23.882812 Z M 7.675781 -12.625 L 7.675781 -19.378906 L 12.589844 -19.378906 C 14.773438 -19.378906 16.617188 -18.460938 16.617188 -16.003906 C 16.617188 -13.578125 14.773438 -12.625 12.589844 -12.625 Z M 7.675781 -12.625 "/></g></g></g><g fill="#ff9900" fill-opacity="1"><g transform="translate(224.388016, 190.786604)"><g><path d="M 15.421875 -23.882812 L 9.828125 -23.882812 L 0.101562 0 L 5.425781 0 L 7.164062 -4.4375 L 18.082031 -4.4375 L 19.824219 0 L 25.148438 0 Z M 8.769531 -8.734375 L 12.078125 -17.230469 C 12.285156 -17.707031 12.417969 -18.1875 12.625 -19.003906 C 12.828125 -18.1875 12.964844 -17.707031 13.136719 -17.230469 L 16.480469 -8.734375 Z M 8.769531 -8.734375 "/></g></g></g><g fill="#ff9900" fill-opacity="1"><g transform="translate(251.440013, 190.786604)"><g><path d="M 14.398438 0.476562 C 17.058594 0.476562 19.789062 -0.101562 22.179688 -1.125 L 22.179688 -13 L 17.265625 -13 L 17.265625 -4.4375 C 16.582031 -4.164062 15.660156 -4.027344 14.671875 -4.027344 C 11.15625 -4.027344 6.515625 -5.597656 6.515625 -11.941406 C 6.515625 -17.503906 10.679688 -19.789062 14.945312 -19.789062 C 17.367188 -19.789062 19.789062 -19.140625 21.597656 -17.914062 L 21.597656 -22.828125 C 19.378906 -23.816406 16.820312 -24.363281 14.261719 -24.363281 C 7.710938 -24.363281 1.261719 -20.609375 1.261719 -11.941406 C 1.261719 -3.171875 7.675781 0.476562 14.398438 0.476562 Z M 14.398438 0.476562 "/></g></g></g><g fill="#ff9900" fill-opacity="1"><g transform="translate(277.161615, 190.786604)"><g><path d="M 2.558594 0 L 19.585938 0 L 19.585938 -4.503906 L 7.675781 -4.503906 L 7.675781 -9.792969 L 18.355469 -9.792969 L 18.355469 -14.296875 L 7.675781 -14.296875 L 7.675781 -19.378906 L 19.378906 -19.378906 L 19.378906 -23.882812 L 2.558594 -23.882812 Z M 2.558594 0 "/></g></g></g><g fill="#ff9900" fill-opacity="1"><g transform="translate(147.912271, 208.5735)"><g><path d="M 3.289062 0 L 5.121094 0 L 8.339844 -8.28125 L 6.421875 -8.28125 L 4.199219 -2.09375 L 1.988281 -8.28125 L 0.0703125 -8.28125 Z M 3.289062 0 "/></g></g></g><g fill="#ff9900" fill-opacity="1"><g transform="translate(165.786846, 208.5735)"><g><path d="M 1.492188 0.152344 C 2.035156 0.152344 2.496094 -0.152344 2.496094 -0.828125 C 2.496094 -1.480469 2.035156 -1.785156 1.492188 -1.785156 C 0.957031 -1.785156 0.484375 -1.480469 0.484375 -0.828125 C 0.484375 -0.152344 0.957031 0.152344 1.492188 0.152344 Z M 1.492188 0.152344 "/></g></g></g><g fill="#ff9900" fill-opacity="1"><g transform="translate(178.246177, 208.5735)"><g><path d="M 0.886719 0 L 2.660156 0 L 2.660156 -2.71875 L 4.011719 -2.71875 C 6.007812 -2.71875 7.582031 -3.359375 7.582031 -5.5 C 7.582031 -7.640625 6.007812 -8.28125 4.011719 -8.28125 L 0.886719 -8.28125 Z M 2.660156 -4.28125 L 2.660156 -6.71875 L 4.09375 -6.71875 C 4.992188 -6.71875 5.761719 -6.46875 5.761719 -5.5 C 5.761719 -4.53125 4.992188 -4.28125 4.09375 -4.28125 Z M 2.660156 -4.28125 "/></g></g></g><g fill="#ff9900" fill-opacity="1"><g transform="translate(195.58869, 208.5735)"><g><path d="M 5.347656 -8.28125 L 3.40625 -8.28125 L 0.0351562 0 L 1.878906 0 L 2.484375 -1.539062 L 6.269531 -1.539062 L 6.871094 0 L 8.71875 0 Z M 3.039062 -3.027344 L 4.1875 -5.972656 C 4.257812 -6.140625 4.304688 -6.304688 4.375 -6.589844 C 4.449219 -6.304688 4.496094 -6.140625 4.554688 -5.972656 L 5.714844 -3.027344 Z M 3.039062 -3.027344 "/></g></g></g><g fill="#ff9900" fill-opacity="1"><g transform="translate(213.806152, 208.5735)"><g><path d="M 0.886719 0 L 2.660156 0 L 2.660156 -2.898438 L 3.960938 -2.898438 L 6.199219 0 L 8.246094 0 L 5.785156 -3.121094 C 6.777344 -3.441406 7.582031 -4.164062 7.582031 -5.582031 C 7.582031 -7.675781 5.902344 -8.28125 4.292969 -8.28125 L 0.886719 -8.28125 Z M 2.660156 -4.375 L 2.660156 -6.71875 L 4.363281 -6.71875 C 5.121094 -6.71875 5.761719 -6.398438 5.761719 -5.546875 C 5.761719 -4.707031 5.121094 -4.375 4.363281 -4.375 Z M 2.660156 -4.375 "/></g></g></g><g fill="#ff9900" fill-opacity="1"><g transform="translate(231.609778, 208.5735)"><g><path d="M 0.886719 0 L 2.660156 0 L 2.660156 -2.898438 L 3.960938 -2.898438 L 6.199219 0 L 8.246094 0 L 5.785156 -3.121094 C 6.777344 -3.441406 7.582031 -4.164062 7.582031 -5.582031 C 7.582031 -7.675781 5.902344 -8.28125 4.292969 -8.28125 L 0.886719 -8.28125 Z M 2.660156 -4.375 L 2.660156 -6.71875 L 4.363281 -6.71875 C 5.121094 -6.71875 5.761719 -6.398438 5.761719 -5.546875 C 5.761719 -4.707031 5.121094 -4.375 4.363281 -4.375 Z M 2.660156 -4.375 "/></g></g></g><g fill="#ff9900" fill-opacity="1"><g transform="translate(249.413404, 208.5735)"><g><path d="M 4.824219 0.164062 C 7.757812 0.164062 9.226562 -1.894531 9.226562 -4.140625 C 9.226562 -6.386719 7.757812 -8.445312 4.824219 -8.445312 C 1.878906 -8.445312 0.425781 -6.386719 0.425781 -4.140625 C 0.425781 -1.894531 1.878906 0.164062 4.824219 0.164062 Z M 4.824219 -1.480469 C 3.109375 -1.480469 2.246094 -2.683594 2.246094 -4.140625 C 2.246094 -5.59375 3.109375 -6.800781 4.824219 -6.800781 C 6.53125 -6.800781 7.40625 -5.59375 7.40625 -4.140625 C 7.40625 -2.683594 6.53125 -1.480469 4.824219 -1.480469 Z M 4.824219 -1.480469 "/></g></g></g><g fill="#ff9900" fill-opacity="1"><g transform="translate(268.517631, 208.5735)"><g><path d="M 2.695312 0 L 4.472656 0 L 4.472656 -6.671875 L 7.003906 -6.671875 L 7.003906 -8.28125 L 0.152344 -8.28125 L 0.152344 -6.671875 L 2.695312 -6.671875 Z M 2.695312 0 "/></g></g></g></svg>