<?xml version="1.0" standalone="no"?>
<!DOCTYPE svg PUBLIC "-//W3C//DTD SVG 20010904//EN"
 "http://www.w3.org/TR/2001/REC-SVG-20010904/DTD/svg10.dtd">
<svg version="1.0" xmlns="http://www.w3.org/2000/svg"
 width="128.000000pt" height="128.000000pt" viewBox="0 0 128.000000 128.000000"
 preserveAspectRatio="xMidYMid meet">

<g transform="translate(0.000000,128.000000) scale(0.100000,-0.100000)"
fill="#000000" stroke="none">
<path d="M465 965 c-41 -14 -75 -49 -142 -143 -40 -55 -31 -51 -199 -98 -31
-9 -70 -29 -87 -44 -31 -28 -32 -31 -32 -114 0 -80 2 -86 28 -114 16 -17 44
-33 62 -36 24 -5 39 -16 54 -42 14 -23 37 -42 67 -56 41 -18 51 -19 90 -8 42
12 104 66 104 90 0 6 86 10 223 10 l222 0 15 -33 c22 -45 95 -81 145 -71 40 7
100 53 110 84 4 12 19 20 49 24 29 5 52 16 72 37 26 28 29 38 32 113 4 78 2
84 -24 115 -15 19 -54 46 -86 60 -53 24 -62 33 -111 111 -78 125 -76 124 -337
127 -167 2 -224 0 -255 -12z m500 -77 c15 -18 46 -62 69 -98 36 -56 49 -69
105 -95 78 -38 91 -55 91 -119 0 -69 -17 -100 -57 -104 -28 -3 -34 1 -46 30
-51 119 -227 116 -269 -4 l-10 -28 -219 0 c-207 0 -219 1 -219 19 0 10 -9 30
-21 45 -67 85 -202 72 -246 -24 -35 -75 -93 -40 -93 56 0 73 16 88 130 119 52
14 103 28 112 31 10 3 39 33 65 67 26 34 63 79 82 100 l33 37 233 0 233 0 27
-32z m-631 -374 c57 -58 17 -154 -64 -154 -30 0 -44 6 -64 31 -35 41 -34 83 3
120 39 38 88 40 125 3z m708 15 c11 -6 26 -26 34 -45 38 -90 -68 -164 -143
-100 -22 19 -28 32 -28 66 0 34 6 47 28 66 30 26 75 31 109 13z"/>
</g>
</svg>
