<svg xmlns="http://www.w3.org/2000/svg" xmlns:xlink="http://www.w3.org/1999/xlink" width="128" zoomAndPan="magnify" viewBox="0 0 96 95.999999" height="128" preserveAspectRatio="xMidYMid meet" version="1.0"><defs><g/><clipPath id="3cf6a317d2"><path d="M 2.695312 6.90625 L 93.566406 6.90625 L 93.566406 87.613281 L 2.695312 87.613281 Z M 2.695312 6.90625 " clip-rule="nonzero"/></clipPath><clipPath id="ab9ba026f2"><path d="M 48 6.90625 C 22.980469 6.90625 2.695312 24.90625 2.695312 47.109375 C 2.695312 69.3125 22.980469 87.3125 48 87.3125 C 73.019531 87.3125 93.304688 69.3125 93.304688 47.109375 C 93.304688 24.90625 73.019531 6.90625 48 6.90625 " clip-rule="nonzero"/></clipPath><clipPath id="bab2cefc5b"><path d="M 31.9375 19 L 64.058594 19 L 64.058594 38.480469 L 31.9375 38.480469 Z M 31.9375 19 " clip-rule="nonzero"/></clipPath></defs><g clip-path="url(#3cf6a317d2)"><g clip-path="url(#ab9ba026f2)"><path fill="#ff9900" d="M 2.695312 6.90625 L 93.566406 6.90625 L 93.566406 87.015625 L 2.695312 87.015625 Z M 2.695312 6.90625 " fill-opacity="1" fill-rule="nonzero"/></g></g><g clip-path="url(#bab2cefc5b)"><path fill="#ffffff" d="M 48.144531 19.964844 C 46.90625 20.75 44.066406 22.539062 44.023438 22.441406 C 43.984375 22.34375 45.429688 20.835938 46.164062 20.082031 C 46.757812 20.039062 47.425781 20 48.144531 19.964844 Z M 39.304688 24.480469 C 39.082031 24.488281 38.859375 24.5 38.632812 24.511719 C 39.15625 23.96875 42.382812 20.667969 43.949219 20.332031 C 44.09375 20.296875 44.308594 20.265625 44.574219 20.234375 C 43.269531 21.273438 40.035156 23.855469 39.304688 24.480469 Z M 34.085938 28.253906 C 33.996094 28.414062 33.933594 28.640625 33.941406 28.972656 C 33.949219 29.316406 34.035156 29.703125 34.136719 30.042969 C 33.664062 29.488281 33.363281 28.78125 33.234375 28.429688 C 33.234375 28.410156 33.238281 28.394531 33.238281 28.378906 C 33.371094 28.324219 33.621094 28.257812 34.085938 28.253906 Z M 34.609375 28.3125 C 34.648438 28.3125 34.683594 28.296875 34.714844 28.277344 C 35.082031 28.308594 35.535156 28.367188 36.089844 28.46875 C 37.15625 28.664062 38.152344 29.09375 38.964844 29.566406 C 40.125 30.242188 40.902344 30.917969 40.917969 31.078125 C 40.871094 31.109375 39.707031 31.070312 38.464844 31.023438 C 37.089844 30.96875 35.644531 30.847656 35.300781 30.796875 C 35.296875 30.792969 35.285156 30.792969 35.269531 30.789062 C 35.09375 30.753906 34.929688 30.6875 34.777344 30.597656 C 34.632812 30.234375 34.375 29.53125 34.363281 28.964844 C 34.347656 28.324219 34.609375 28.3125 34.609375 28.3125 Z M 63.269531 28.832031 C 63.269531 28.832031 61.804688 29.203125 60.460938 29.6875 C 59.074219 30.183594 57.8125 30.785156 57.695312 30.976562 C 57.472656 31.351562 58.050781 31.59375 58.246094 31.601562 C 58.441406 31.609375 62.648438 31.691406 62.648438 31.566406 C 62.648438 31.4375 62.289062 31.28125 61.972656 31.296875 C 61.652344 31.316406 58.085938 31.261719 58.140625 31.078125 C 58.199219 30.894531 60.929688 29.699219 61.839844 29.40625 C 62.75 29.113281 63.269531 28.832031 63.269531 28.832031 Z M 36.132812 32.457031 C 35.84375 32.457031 35.585938 32.570312 35.398438 32.757812 C 35.210938 32.941406 35.09375 33.199219 35.09375 33.480469 C 35.09375 33.765625 35.210938 34.019531 35.398438 34.207031 C 35.585938 34.390625 35.84375 34.503906 36.132812 34.503906 C 36.417969 34.503906 36.679688 34.390625 36.867188 34.207031 C 37.050781 34.019531 37.167969 33.765625 37.167969 33.480469 C 37.167969 33.199219 37.050781 32.941406 36.867188 32.757812 C 36.679688 32.570312 36.417969 32.457031 36.132812 32.457031 Z M 39.28125 30.796875 C 39.394531 30.800781 39.496094 30.710938 39.5 30.597656 C 39.503906 30.484375 39.414062 30.386719 39.300781 30.382812 C 39.289062 30.382812 35.785156 30.230469 35.480469 30.015625 C 35.214844 29.832031 35.199219 28.882812 35.195312 28.878906 C 35.195312 28.765625 35.097656 28.675781 34.984375 28.675781 C 34.867188 28.679688 34.777344 28.773438 34.777344 28.886719 C 34.777344 28.890625 34.796875 30.046875 35.238281 30.355469 C 35.640625 30.640625 39.269531 30.796875 39.28125 30.796875 Z M 36.042969 33.175781 C 36.140625 33.082031 36.269531 33.023438 36.414062 33.023438 C 36.558594 33.023438 36.691406 33.082031 36.789062 33.175781 C 36.882812 33.269531 36.941406 33.398438 36.941406 33.542969 C 36.941406 33.683594 36.882812 33.816406 36.789062 33.910156 C 36.691406 34.003906 36.558594 34.0625 36.414062 34.0625 C 36.269531 34.0625 36.140625 34.003906 36.042969 33.910156 C 35.949219 33.816406 35.890625 33.683594 35.890625 33.542969 C 35.890625 33.398438 35.949219 33.269531 36.042969 33.175781 Z M 58.765625 33.675781 C 58.765625 33.675781 57.242188 31.949219 56.480469 31.804688 C 55.71875 31.65625 43.175781 31.324219 41.390625 32.042969 C 39.605469 32.757812 37.003906 35.601562 37.132812 36.1875 C 37.15625 36.292969 37.183594 36.378906 37.214844 36.453125 L 32.84375 36.425781 C 32.753906 36.425781 32.636719 36.136719 32.5625 35.84375 L 32.5625 35.835938 C 32.535156 35.738281 32.519531 35.644531 32.511719 35.554688 C 32.507812 35.503906 32.503906 35.453125 32.507812 35.414062 L 34.179688 35.402344 C 34.335938 35.402344 36.597656 35.277344 36.597656 35.125 C 36.597656 34.972656 34.335938 34.847656 34.179688 34.847656 L 33.261719 34.855469 C 33.199219 34.089844 33.027344 31.683594 33.140625 29.554688 C 33.550781 30.289062 34.214844 31.132812 35.152344 31.332031 C 35.160156 31.332031 35.183594 31.335938 35.214844 31.339844 C 35.574219 31.398438 37.050781 31.519531 38.445312 31.574219 C 39.953125 31.632812 41.386719 31.578125 41.46875 31.195312 C 41.472656 31.175781 41.476562 31.160156 41.476562 31.140625 C 41.476562 31.066406 41.449219 31 41.402344 30.945312 C 41.167969 30.523438 40.371094 29.742188 39.246094 29.089844 C 38.386719 28.589844 37.328125 28.132812 36.191406 27.925781 C 34.710938 27.65625 33.832031 27.703125 33.320312 27.816406 C 33.46875 26.953125 33.707031 26.277344 34.082031 26 C 35.398438 25.023438 39.242188 24.679688 41.160156 25.054688 C 41.304688 25.097656 41.160156 25.035156 41.574219 25.195312 C 41.988281 25.359375 44.683594 30.054688 44.964844 30.054688 C 45.242188 30.054688 43.847656 27.25 43.699219 26.769531 C 43.609375 26.484375 43.46875 26.074219 43.503906 25.738281 C 43.597656 25.707031 43.632812 25.671875 43.632812 25.671875 C 43.632812 25.671875 43.652344 25.597656 44.65625 25.429688 C 45.660156 25.265625 54.710938 25.285156 55.339844 25.542969 C 55.972656 25.800781 55.863281 26.292969 55.710938 26.769531 C 55.5625 27.25 54.171875 30.054688 54.449219 30.054688 C 54.726562 30.054688 56.863281 26.019531 57.570312 25.742188 C 58.277344 25.46875 62.226562 24.953125 62.226562 24.953125 C 62.226562 24.953125 57.367188 25.082031 56.929688 25.035156 C 56.492188 24.992188 56.207031 24.449219 55.890625 24.433594 C 55.710938 24.421875 51.601562 24.429688 48.007812 24.441406 C 48.863281 23.441406 51.496094 20.363281 51.699219 20.054688 C 51.742188 19.988281 51.765625 19.925781 51.773438 19.875 C 54.785156 19.867188 57.71875 20.050781 58.722656 20.640625 C 60.867188 21.902344 62.625 23.6875 62.625 23.6875 C 62.625 23.6875 60.710938 20.699219 58.332031 19.871094 C 55.953125 19.046875 45.175781 18.992188 42.554688 19.78125 C 39.9375 20.570312 37.5 24.09375 37.5 24.09375 L 37.449219 24.152344 C 37.238281 23.820312 36.867188 23.316406 36.410156 23.097656 C 35.703125 22.757812 32.347656 22.683594 32.183594 23.078125 C 32.015625 23.472656 33.027344 24.703125 33.9375 24.730469 C 34.847656 24.757812 36.402344 24.511719 36.847656 24.667969 C 36.785156 24.675781 36.722656 24.683594 36.664062 24.691406 C 34.246094 25.03125 33.171875 25.632812 32.929688 26.511719 C 32.839844 26.84375 32.558594 27.832031 32.46875 29.3125 C 32.347656 31.371094 32.375 34.011719 32.386719 34.863281 C 32.144531 34.863281 32.011719 35.019531 31.964844 35.261719 C 31.945312 35.359375 31.941406 35.476562 31.953125 35.605469 C 31.960938 35.71875 31.984375 35.84375 32.015625 35.972656 L 32.019531 35.984375 C 32.148438 36.480469 32.457031 36.976562 32.84375 36.976562 L 32.859375 36.976562 C 32.890625 37.359375 32.957031 38.007812 33.074219 38.09375 C 33.101562 38.117188 33.269531 38.136719 33.523438 38.148438 C 34.226562 38.1875 35.621094 38.191406 36.675781 38.1875 C 44.238281 38.273438 62.808594 38.46875 63.40625 38.277344 C 63.976562 38.097656 46.683594 37.847656 38.613281 37.742188 C 38.617188 37.726562 38.617188 37.710938 38.613281 37.691406 C 38.585938 37.527344 38.625 37.109375 38.65625 36.835938 C 41.972656 36.851562 52.050781 36.894531 62.828125 36.929688 L 62.828125 36.933594 C 63.480469 36.980469 64.175781 37.003906 64.183594 36.886719 C 64.1875 36.761719 63.449219 36.628906 62.789062 36.46875 C 50.347656 36.339844 39.101562 36.191406 38.992188 36.019531 C 38.9375 35.929688 39.046875 35.71875 39.261719 35.445312 C 42.925781 35.390625 56.207031 35.101562 56.804688 34.847656 C 56.804688 34.847656 44.128906 34.609375 40.054688 34.582031 C 40.324219 34.316406 40.621094 34.046875 40.914062 33.796875 C 44.890625 33.78125 56.433594 33.476562 56.785156 33.324219 C 57.132812 33.175781 45.621094 33.28125 41.570312 33.265625 C 41.917969 33.007812 42.21875 32.816406 42.414062 32.757812 C 43.230469 32.5 56.292969 32.113281 56.777344 32.296875 C 57.257812 32.480469 58.503906 33.820312 58.636719 33.746094 C 58.765625 33.675781 58.765625 33.675781 58.765625 33.675781 " fill-opacity="1" fill-rule="evenodd"/></g><g fill="#ffffff" fill-opacity="1"><g transform="translate(18.202093, 51.145462)"><g><path d="M 5.730469 0.191406 C 6.789062 0.191406 7.875 -0.0390625 8.824219 -0.449219 L 8.824219 -5.171875 L 6.871094 -5.171875 L 6.871094 -1.765625 C 6.597656 -1.65625 6.230469 -1.601562 5.839844 -1.601562 C 4.441406 -1.601562 2.59375 -2.226562 2.59375 -4.75 C 2.59375 -6.964844 4.25 -7.875 5.945312 -7.875 C 6.910156 -7.875 7.875 -7.617188 8.59375 -7.128906 L 8.59375 -9.082031 C 7.710938 -9.476562 6.695312 -9.695312 5.675781 -9.695312 C 3.070312 -9.695312 0.503906 -8.199219 0.503906 -4.75 C 0.503906 -1.261719 3.054688 0.191406 5.730469 0.191406 Z M 5.730469 0.191406 "/></g></g></g><g fill="#ffffff" fill-opacity="1"><g transform="translate(28.436997, 51.145462)"><g><path d="M 6.136719 -9.503906 L 3.910156 -9.503906 L 0.0390625 0 L 2.160156 0 L 2.851562 -1.765625 L 7.195312 -1.765625 L 7.886719 0 L 10.007812 0 Z M 3.488281 -3.476562 L 4.804688 -6.855469 C 4.886719 -7.046875 4.941406 -7.238281 5.023438 -7.5625 C 5.105469 -7.238281 5.160156 -7.046875 5.226562 -6.855469 L 6.558594 -3.476562 Z M 3.488281 -3.476562 "/></g></g></g><g fill="#ffffff" fill-opacity="1"><g transform="translate(39.201279, 51.145462)"><g><path d="M 1.019531 0 L 3.054688 0 L 3.054688 -3.328125 L 4.546875 -3.328125 L 7.113281 0 L 9.464844 0 L 6.640625 -3.585938 C 7.78125 -3.949219 8.703125 -4.777344 8.703125 -6.410156 C 8.703125 -8.8125 6.773438 -9.503906 4.929688 -9.503906 L 1.019531 -9.503906 Z M 3.054688 -5.023438 L 3.054688 -7.710938 L 5.011719 -7.710938 C 5.878906 -7.710938 6.613281 -7.34375 6.613281 -6.367188 C 6.613281 -5.402344 5.878906 -5.023438 5.011719 -5.023438 Z M 3.054688 -5.023438 "/></g></g></g><g fill="#ffffff" fill-opacity="1"><g transform="translate(49.490479, 51.145462)"><g><path d="M 6.136719 -9.503906 L 3.910156 -9.503906 L 0.0390625 0 L 2.160156 0 L 2.851562 -1.765625 L 7.195312 -1.765625 L 7.886719 0 L 10.007812 0 Z M 3.488281 -3.476562 L 4.804688 -6.855469 C 4.886719 -7.046875 4.941406 -7.238281 5.023438 -7.5625 C 5.105469 -7.238281 5.160156 -7.046875 5.226562 -6.855469 L 6.558594 -3.476562 Z M 3.488281 -3.476562 "/></g></g></g><g fill="#ffffff" fill-opacity="1"><g transform="translate(60.254762, 51.145462)"><g><path d="M 5.730469 0.191406 C 6.789062 0.191406 7.875 -0.0390625 8.824219 -0.449219 L 8.824219 -5.171875 L 6.871094 -5.171875 L 6.871094 -1.765625 C 6.597656 -1.65625 6.230469 -1.601562 5.839844 -1.601562 C 4.441406 -1.601562 2.59375 -2.226562 2.59375 -4.75 C 2.59375 -6.964844 4.25 -7.875 5.945312 -7.875 C 6.910156 -7.875 7.875 -7.617188 8.59375 -7.128906 L 8.59375 -9.082031 C 7.710938 -9.476562 6.695312 -9.695312 5.675781 -9.695312 C 3.070312 -9.695312 0.503906 -8.199219 0.503906 -4.75 C 0.503906 -1.261719 3.054688 0.191406 5.730469 0.191406 Z M 5.730469 0.191406 "/></g></g></g><g fill="#ffffff" fill-opacity="1"><g transform="translate(70.489668, 51.145462)"><g><path d="M 1.019531 0 L 7.792969 0 L 7.792969 -1.792969 L 3.054688 -1.792969 L 3.054688 -3.898438 L 7.304688 -3.898438 L 7.304688 -5.6875 L 3.054688 -5.6875 L 3.054688 -7.710938 L 7.710938 -7.710938 L 7.710938 -9.503906 L 1.019531 -9.503906 Z M 1.019531 0 "/></g></g></g><g fill="#ffffff" fill-opacity="1"><g transform="translate(21.754718, 58.965613)"><g><path d="M 1.308594 0 L 2.039062 0 L 3.316406 -3.292969 L 2.554688 -3.292969 L 1.671875 -0.832031 L 0.789062 -3.292969 L 0.0273438 -3.292969 Z M 1.308594 0 "/></g></g></g><g fill="#ffffff" fill-opacity="1"><g transform="translate(28.867206, 58.965613)"><g><path d="M 0.59375 0.0625 C 0.808594 0.0625 0.992188 -0.0625 0.992188 -0.328125 C 0.992188 -0.589844 0.808594 -0.710938 0.59375 -0.710938 C 0.382812 -0.710938 0.191406 -0.589844 0.191406 -0.328125 C 0.191406 -0.0625 0.382812 0.0625 0.59375 0.0625 Z M 0.59375 0.0625 "/></g></g></g><g fill="#ffffff" fill-opacity="1"><g transform="translate(33.824909, 58.965613)"><g><path d="M 0.351562 0 L 1.058594 0 L 1.058594 -1.082031 L 1.59375 -1.082031 C 2.390625 -1.082031 3.015625 -1.335938 3.015625 -2.1875 C 3.015625 -3.039062 2.390625 -3.292969 1.59375 -3.292969 L 0.351562 -3.292969 Z M 1.058594 -1.703125 L 1.058594 -2.671875 L 1.628906 -2.671875 C 1.984375 -2.671875 2.292969 -2.574219 2.292969 -2.1875 C 2.292969 -1.800781 1.984375 -1.703125 1.628906 -1.703125 Z M 1.058594 -1.703125 "/></g></g></g><g fill="#ffffff" fill-opacity="1"><g transform="translate(40.725683, 58.965613)"><g><path d="M 2.128906 -3.292969 L 1.355469 -3.292969 L 0.015625 0 L 0.75 0 L 0.988281 -0.613281 L 2.496094 -0.613281 L 2.734375 0 L 3.46875 0 Z M 1.210938 -1.203125 L 1.667969 -2.375 C 1.695312 -2.441406 1.714844 -2.507812 1.742188 -2.621094 C 1.769531 -2.507812 1.789062 -2.441406 1.8125 -2.375 L 2.273438 -1.203125 Z M 1.210938 -1.203125 "/></g></g></g><g fill="#ffffff" fill-opacity="1"><g transform="translate(47.97461, 58.965613)"><g><path d="M 0.351562 0 L 1.058594 0 L 1.058594 -1.152344 L 1.578125 -1.152344 L 2.464844 0 L 3.28125 0 L 2.300781 -1.242188 C 2.695312 -1.371094 3.015625 -1.65625 3.015625 -2.222656 C 3.015625 -3.054688 2.347656 -3.292969 1.707031 -3.292969 L 0.351562 -3.292969 Z M 1.058594 -1.742188 L 1.058594 -2.671875 L 1.738281 -2.671875 C 2.039062 -2.671875 2.292969 -2.546875 2.292969 -2.207031 C 2.292969 -1.875 2.039062 -1.742188 1.738281 -1.742188 Z M 1.058594 -1.742188 "/></g></g></g><g fill="#ffffff" fill-opacity="1"><g transform="translate(55.058866, 58.965613)"><g><path d="M 0.351562 0 L 1.058594 0 L 1.058594 -1.152344 L 1.578125 -1.152344 L 2.464844 0 L 3.28125 0 L 2.300781 -1.242188 C 2.695312 -1.371094 3.015625 -1.65625 3.015625 -2.222656 C 3.015625 -3.054688 2.347656 -3.292969 1.707031 -3.292969 L 0.351562 -3.292969 Z M 1.058594 -1.742188 L 1.058594 -2.671875 L 1.738281 -2.671875 C 2.039062 -2.671875 2.292969 -2.546875 2.292969 -2.207031 C 2.292969 -1.875 2.039062 -1.742188 1.738281 -1.742188 Z M 1.058594 -1.742188 "/></g></g></g><g fill="#ffffff" fill-opacity="1"><g transform="translate(62.143122, 58.965613)"><g><path d="M 1.921875 0.0664062 C 3.085938 0.0664062 3.671875 -0.753906 3.671875 -1.648438 C 3.671875 -2.542969 3.085938 -3.359375 1.921875 -3.359375 C 0.75 -3.359375 0.167969 -2.542969 0.167969 -1.648438 C 0.167969 -0.753906 0.75 0.0664062 1.921875 0.0664062 Z M 1.921875 -0.589844 C 1.238281 -0.589844 0.894531 -1.070312 0.894531 -1.648438 C 0.894531 -2.226562 1.238281 -2.707031 1.921875 -2.707031 C 2.597656 -2.707031 2.945312 -2.226562 2.945312 -1.648438 C 2.945312 -1.070312 2.597656 -0.589844 1.921875 -0.589844 Z M 1.921875 -0.589844 "/></g></g></g><g fill="#ffffff" fill-opacity="1"><g transform="translate(69.744902, 58.965613)"><g><path d="M 1.074219 0 L 1.777344 0 L 1.777344 -2.65625 L 2.785156 -2.65625 L 2.785156 -3.292969 L 0.0625 -3.292969 L 0.0625 -2.65625 L 1.074219 -2.65625 Z M 1.074219 0 "/></g></g></g></svg>